HIERARCHY
ROOT Hips
{
	OFFSET -3.958830 18.904000 13.208200
	CHANNELS 6 Xposition Yposition Zposition Zrotation Yrotation Xrotation 
	JOINT LHipJoint
	{
		OFFSET 0.000000 0.000000 0.000000
		CHANNELS 3 Zrotation Yrotation Xrotation
		JOINT LeftUpLeg
		{
			OFFSET 1.800000 -1.400000 0.085000
			CHANNELS 3 Zrotation Yrotation Xrotation
			JOINT LeftLeg
			{
				OFFSET 2.215000 -6.000000 0.000000
				CHANNELS 3 Zrotation Yrotation Xrotation
				JOINT LeftFoot
				{
					OFFSET 2.500000 -6.900000 0.000000
					CHANNELS 3 Zrotation Yrotation Xrotation
					JOINT LeftToeBase
					{
						OFFSET 0.200000 -0.500000 1.950000
						CHANNELS 3 Zrotation Yrotation Xrotation
						End Site
						{
							OFFSET 0.000000 0.000000 0.000000
						}
					}
				}
			}
		}
	}
	JOINT RHipJoint
	{
		OFFSET 0.000000 0.000000 0.000000
		CHANNELS 3 Zrotation Yrotation Xrotation
		JOINT RightUpLeg
		{
			OFFSET -1.800000 -1.400000 0.085000
			CHANNELS 3 Zrotation Yrotation Xrotation
			JOINT RightLeg
			{
				OFFSET -2.215000 -6.000000 0.000000
				CHANNELS 3 Zrotation Yrotation Xrotation
				JOINT RightFoot
				{
					OFFSET -2.500000 -6.900000 0.000000
					CHANNELS 3 Zrotation Yrotation Xrotation
					JOINT RightToeBase
					{
						OFFSET -0.200000 -0.500000 1.950000
						CHANNELS 3 Zrotation Yrotation Xrotation
						End Site
						{
							OFFSET 0.000000 0.000000 0.000000
						}
					}
				}
			}
		}
	}
	JOINT LowerBack
	{
		OFFSET 0.000000 0.000000 0.000000
		CHANNELS 3 Zrotation Yrotation Xrotation
		JOINT Spine
		{
			OFFSET -0.087000 1.940000 -0.288900
			CHANNELS 3 Zrotation Yrotation Xrotation
			JOINT Spine1
			{
				OFFSET 0.000000 1.950000 0.060000
				CHANNELS 3 Zrotation Yrotation Xrotation
				JOINT Neck
				{
					OFFSET 0.000000 0.000000 0.000000
					CHANNELS 3 Zrotation Yrotation Xrotation
					JOINT Neck1
					{
						OFFSET 0.000000 1.600000 0.340000
						CHANNELS 3 Zrotation Yrotation Xrotation
						JOINT Head
						{
							OFFSET 0.000000 1.667000 -0.240000
							CHANNELS 3 Zrotation Yrotation Xrotation
							End Site
							{
								OFFSET 0.000000 0.000000 0.000000
							}
						}
					}
				}
				JOINT LeftShoulder
				{
					OFFSET 0.000000 0.000000 0.000000
					CHANNELS 3 Zrotation Yrotation Xrotation
					JOINT LeftArm
					{
						OFFSET 2.700000 1.550000 -0.730000
						CHANNELS 3 Zrotation Yrotation Xrotation
						JOINT LeftForeArm
						{
							OFFSET 5.450000 0.000000 0.000000
							CHANNELS 3 Zrotation Yrotation Xrotation
							JOINT LeftHand
							{
								OFFSET 3.450000 0.000000 0.000000
								CHANNELS 3 Zrotation Yrotation Xrotation
								JOINT LeftHandIndex1
								{
									OFFSET 0.750000 0.000000 0.000000
									CHANNELS 3 Zrotation Yrotation Xrotation
									End Site
									{
										OFFSET 0.000000 0.000000 0.000000
									}
								}
							}
						}
					}
				}
				JOINT RightShoulder
				{
					OFFSET 0.000000 0.000000 0.000000
					CHANNELS 3 Zrotation Yrotation Xrotation
					JOINT RightArm
					{
						OFFSET -2.700000 1.550000 -0.730000
						CHANNELS 3 Zrotation Yrotation Xrotation
						JOINT RightForeArm
						{
							OFFSET -5.450000 0.000000 0.000000
							CHANNELS 3 Zrotation Yrotation Xrotation
							JOINT RightHand
							{
								OFFSET -3.450000 0.000000 0.000000
								CHANNELS 3 Zrotation Yrotation Xrotation
								JOINT RightHandIndex1
								{
									OFFSET -0.750000 0.000000 0.000000
									CHANNELS 3 Zrotation Yrotation Xrotation
									End Site
									{
										OFFSET 0.000000 0.000000 0.000000
									}
								}
							}
						}
					}
				}
			}
		}
	}
}
MOTION
Frames: 6
Frame Time: 0.016667
-0.319520 13.131930 -0.780910 -56.932983 10.331712 -58.149762 -15.406274 13.985451 3.628726 -1.380346 -3.175720 -26.052695 -3.635986 9.344798 37.589149 -0.230006 6.604578 2.163446 0.415980 0.268260 0.144100 17.943759 -10.128725 3.170882 -1.353944 9.962594 -21.383129 -5.873610 -2.301455 45.009205 -0.828381 -5.678550 2.362669 0.142990 0.359830 0.171270 -2.901900 -3.508637 -7.967555 11.796894 -1.134246 62.203249 -6.055354 5.391053 23.561967 9.563961 0.495057 -15.253398 -2.700062 3.853302 54.848285 11.474540 -4.122590 -14.413600 -22.671061 -25.935573 8.830289 -29.976840 0.200373 -8.648829 29.563244 -5.279624 -4.704770 -3.682691 2.925640 0.784150 -0.061470 0.178810 0.251160 2.843729 30.419623 10.495987 11.777696 -5.583322 -28.149833 -67.335435 47.145745 -35.535414 2.095764 -1.316939 -0.249270 0.505970 0.078160 -0.023580 
-0.313390 13.128990 -0.806800 -57.137596 9.541155 -58.011492 -15.383779 13.807812 3.455318 -1.559457 -2.992496 -26.605742 -1.966532 8.685688 37.626803 -0.288558 6.450182 2.232062 0.402270 0.241580 0.158700 17.987753 -9.860690 3.513088 -5.250460 12.052146 -22.508099 6.879355 -8.513381 47.377350 -1.025298 -6.894277 1.950804 0.143770 0.377130 0.154690 -2.999431 -3.391083 -8.110852 13.215462 -2.044528 61.924503 -7.475924 4.953875 24.264323 10.483985 0.411049 -15.777678 -2.897926 4.395846 55.444348 10.345540 -3.900370 -13.728260 -23.952875 -26.866233 9.221127 -28.353275 1.282464 -8.668351 30.061679 -4.403328 -4.514432 -3.740794 2.900856 0.780690 -0.047330 0.160310 0.242110 2.397851 31.354612 10.301502 10.603761 -4.612622 -28.648042 -67.847755 48.178560 -36.321826 2.166898 -1.341875 -0.276010 0.537550 0.087670 -0.034680 
-0.288920 13.091240 -0.853890 -58.310006 5.950512 -57.573002 -15.192112 13.000658 3.030231 -1.161747 -2.647536 -29.939457 4.107206 6.967570 41.861586 -0.301253 6.733989 2.124999 0.368360 0.213760 0.098550 18.296882 -9.295489 4.526403 -11.618967 16.588455 -25.187476 28.617024 -19.186861 47.575622 -1.779386 -9.706334 1.096138 0.140420 0.427230 0.133500 -3.674125 -2.294982 -8.494618 20.198019 -6.342292 61.443933 -11.720789 3.538471 24.235138 11.356410 -0.557635 -16.054627 -4.925781 5.435393 56.597410 11.427500 -4.675510 -14.316980 -25.961599 -27.265069 9.559446 -26.592250 2.773457 -8.135522 29.835372 -3.858894 -4.086933 -3.793785 2.859442 0.794940 -0.040980 0.134550 0.242140 3.114096 31.277661 9.224951 7.204675 -1.163492 -27.810104 -67.757790 50.204507 -36.371981 2.167410 -1.252566 -0.306630 0.594550 0.135040 -0.021660 
-0.344990 13.053960 -0.831290 -57.373040 5.307729 -56.137165 -15.157612 12.199993 2.935093 -3.684099 -3.127816 -33.894668 9.523661 5.509747 46.209468 -0.169681 7.274495 1.921973 0.364770 0.214710 0.012980 18.485633 -8.571490 5.320032 -19.707929 19.014659 -28.995423 49.714155 -29.999908 46.402443 -2.525039 -11.971376 0.482041 0.147650 0.465420 0.157150 -3.963659 -1.838602 -8.895821 21.879268 -6.793147 60.150289 -13.073254 3.244008 23.849915 11.131816 -1.966550 -15.869541 -7.368338 6.634892 55.148817 13.447030 -5.487380 -13.731360 -24.676861 -26.387193 9.697473 -26.977023 2.689264 -7.201756 28.554761 -3.762435 -3.693316 -3.777625 2.937564 0.764210 -0.032060 0.099160 0.267360 2.488742 31.396878 8.519085 5.222521 2.553712 -27.227893 -71.921053 49.396902 -38.485825 2.201508 -1.259166 -0.286940 0.559150 0.161040 0.015510 
-0.380410 13.011950 -0.803740 -57.056543 9.191536 -55.208736 -15.269235 11.441187 3.521292 -9.726941 -6.289691 -37.786298 15.274511 3.126786 51.391804 0.152515 8.093736 1.693101 0.377250 0.257730 -0.019480 18.500348 -7.973358 5.462495 -27.270401 15.614649 -28.918192 74.690134 -39.082251 37.244281 -2.790075 -12.133355 0.505633 0.147210 0.507180 0.182020 -3.843324 -2.057695 -9.309347 20.108894 -6.231869 58.290883 -12.557607 2.222380 23.793909 10.747176 -1.407765 -16.014442 -5.886694 6.494881 55.929351 13.494240 -5.510420 -11.650140 -23.968473 -27.230087 10.936006 -26.521700 3.454538 -6.214529 26.737221 -3.411277 -3.112606 -3.779466 2.977572 0.689020 0.007250 0.091700 0.313910 2.642661 32.013965 7.751571 1.960576 6.240413 -25.630021 -70.948634 47.564762 -36.557190 2.180850 -1.276855 -0.235600 0.542320 0.132550 0.068820 
-0.432490 12.999430 -0.798590 -53.307682 10.532129 -52.209726 -15.463617 10.799904 4.303907 -13.078281 -9.405931 -45.155624 19.024567 2.211576 58.635905 0.399446 9.685762 1.169170 0.295960 0.151970 -0.064210 18.418870 -7.431854 5.297858 -31.223877 12.298003 -26.014122 99.791478 -37.685447 22.169088 -2.641174 -11.232118 0.759934 0.147850 0.591930 0.188590 -3.425065 -2.424976 -9.687954 15.056099 -2.578618 56.102198 -11.526037 4.020825 24.410218 11.510289 -1.469256 -16.073692 -4.821467 7.322463 55.569712 10.619110 -4.305800 -9.003000 -23.722381 -26.528556 10.814880 -25.532831 2.567722 -5.172878 25.918097 -2.143791 -2.713102 -3.944447 2.924851 0.644170 0.102880 -0.006650 0.266200 0.814030 33.425708 7.049472 1.329925 11.140393 -25.502140 -70.373147 44.921731 -35.301076 2.218489 -1.351762 -0.303520 0.563350 0.228050 0.041080 
